<svg width="60" height="61" viewBox="0 0 60 61" fill="none" xmlns="http://www.w3.org/2000/svg">
<g id="Red Player">
<g id="Player">
<g id="Footer">
<path id="Ellipse 3" d="M48.6955 46.0215C54.9387 46.0215 59.9998 44.2064 59.9998 41.9674C59.9998 39.7284 54.9387 37.9133 48.6955 37.9133C42.4522 37.9133 37.3911 39.7284 37.3911 41.9674C37.3911 44.2064 42.4522 46.0215 48.6955 46.0215Z" fill="#FFD4BC"/>
<path id="Ellipse 4" d="M48.6955 23.3186C54.9387 23.3186 59.9998 21.5035 59.9998 19.2645C59.9998 17.0255 54.9387 15.2104 48.6955 15.2104C42.4522 15.2104 37.3911 17.0255 37.3911 19.2645C37.3911 21.5035 42.4522 23.3186 48.6955 23.3186Z" fill="#FFD4BC"/>
</g>
<g id="Body">
<path id="Rectangle 1" d="M52.1739 30.6159C52.1739 17.1819 40.4944 6.2915 26.087 6.2915C11.6795 6.2915 0 17.1819 0 30.6159C0 44.0499 11.6795 54.9403 26.087 54.9403C40.4944 54.9403 52.1739 44.0499 52.1739 30.6159Z" fill="#096E6D"/>
<path id="Rectangle 3" d="M22.6089 6.4818L26.5219 6.2915L30.435 6.64843V20.0753H22.6089V6.4818Z" fill="white"/>
<path id="Rectangle 4" d="M22.6089 41.3456L26.5219 41.1553L30.435 41.5122V54.9391H22.6089V41.3456Z" fill="white"/>
<g id="Hands">
<path id="Ellipse 5" d="M26.5215 60.6159C28.2024 60.6159 29.565 59.3453 29.565 57.778C29.565 56.2107 28.2024 54.9402 26.5215 54.9402C24.8406 54.9402 23.478 56.2107 23.478 57.778C23.478 59.3453 24.8406 60.6159 26.5215 60.6159Z" fill="#FFD4BC"/>
<path id="Ellipse 6" d="M26.5215 6.29165C28.2024 6.29165 29.565 5.02111 29.565 3.45381C29.565 1.88651 28.2024 0.615967 26.5215 0.615967C24.8406 0.615967 23.478 1.88651 23.478 3.45381C23.478 5.02111 24.8406 6.29165 26.5215 6.29165Z" fill="#FFD4BC"/>
</g>
</g>
<g id="Head">
<g id="FullHead">
<g id="Rectangle 2" filter="url(#filter0_i_153_42)">
<path id="Vector" d="M39.1304 30.6163C39.1304 23.8993 33.2906 18.4541 26.0869 18.4541C18.8832 18.4541 13.0435 23.8993 13.0435 30.6163C13.0435 37.3333 18.8832 42.7785 26.0869 42.7785C33.2906 42.7785 39.1304 37.3333 39.1304 30.6163Z" fill="#FFD4BC"/>
</g>
</g>
</g>
</g>
</g>
<defs>
<filter id="filter0_i_153_42" x="13.0435" y="18.4541" width="26.0869" height="24.3245" filterUnits="userSpaceOnUse" color-interpolation-filters="sRGB">
<feFlood flood-opacity="0" result="BackgroundImageFix"/>
<feBlend mode="normal" in="SourceGraphic" in2="BackgroundImageFix" result="shape"/>
<feColorMatrix in="SourceAlpha" type="matrix" values="0 0 0 0 0 0 0 0 0 0 0 0 0 0 0 0 0 0 127 0" result="hardAlpha"/>
<feOffset/>
<feGaussianBlur stdDeviation="1.62162"/>
<feComposite in2="hardAlpha" operator="arithmetic" k2="-1" k3="1"/>
<feColorMatrix type="matrix" values="0 0 0 0 0 0 0 0 0 0 0 0 0 0 0 0 0 0 0.25 0"/>
<feBlend mode="normal" in2="shape" result="effect1_innerShadow_153_42"/>
</filter>
</defs>
</svg>
