<svg width="56" height="83" viewBox="0 0 56 83" fill="none" xmlns="http://www.w3.org/2000/svg">
    <g id="Blue Player">
      <g id="Player">
        <g id="Footer">
          <path id="Ellipse 3"
            d="M45.4321 67.4052C51.2535 67.4052 55.9727 65.5902 55.9727 63.3512C55.9727 61.1122 51.2535 59.2971 45.4321 59.2971C39.6108 59.2971 34.8916 61.1122 34.8916 63.3512C34.8916 65.5902 39.6108 67.4052 45.4321 67.4052Z"
            fill="#FFD4BC" />
          <path id="Ellipse 4"
            d="M45.4321 44.7026C51.2535 44.7026 55.9727 42.8875 55.9727 40.6485C55.9727 38.4095 51.2535 36.5945 45.4321 36.5945C39.6108 36.5945 34.8916 38.4095 34.8916 40.6485C34.8916 42.8875 39.6108 44.7026 45.4321 44.7026Z"
            fill="#FFD4BC" />
        </g>
        <g id="Body">
          <path id="Rectangle 1"
            d="M48.6755 52.0001C48.6755 38.5662 37.7851 27.6758 24.3512 27.6758C10.9172 27.6758 0.0268555 38.5662 0.0268555 52.0001C0.0268555 65.4341 10.9172 76.3244 24.3512 76.3244C37.7851 76.3244 48.6755 65.4341 48.6755 52.0001Z"
            fill="#0E4F51" />
          <path id="Rectangle 3" d="M21.1079 27.8661L24.7566 27.6758L28.4052 28.0327V41.4596H21.1079V27.8661Z"
            fill="white" />
          <path id="Rectangle 4" d="M21.1079 62.7308L24.7566 62.5405L28.4052 62.8974V76.3243H21.1079V62.7308Z"
            fill="white" />
          <g id="Hands">
            <g id="Red Flag">
              <path id="Rectangle 12"
                d="M40.5127 7.14966L42.5554 9.19241L25.192 26.5558L23.1493 24.5131L40.5127 7.14966Z"
                fill="url(#paint0_linear_128_33)" />
              <path id="Vector 18" d="M30.2987 3.06413L32.3414 15.3206L40.5124 7.14964L30.2987 3.06413Z"
                fill="url(#paint1_linear_128_33)" />
            </g>
            <path id="Ellipse 5"
              d="M24.7563 81.9999C26.3236 81.9999 27.5941 80.7294 27.5941 79.1621C27.5941 77.5948 26.3236 76.3242 24.7563 76.3242C23.189 76.3242 21.9185 77.5948 21.9185 79.1621C21.9185 80.7294 23.189 81.9999 24.7563 81.9999Z"
              fill="#FFD4BC" />
            <path id="Ellipse 6"
              d="M24.7563 27.6757C26.3236 27.6757 27.5941 26.4051 27.5941 24.8378C27.5941 23.2705 26.3236 22 24.7563 22C23.189 22 21.9185 23.2705 21.9185 24.8378C21.9185 26.4051 23.189 27.6757 24.7563 27.6757Z"
              fill="#FFD4BC" />
          </g>
        </g>
        <g id="Head">
          <g id="Rectangle 2" filter="url(#filter0_i_128_33)">
            <path id="Vector"
              d="M36.5133 52.0001C36.5133 45.2831 31.0681 39.8379 24.3511 39.8379C17.6342 39.8379 12.189 45.2831 12.189 52.0001C12.189 58.717 17.6342 64.1622 24.3511 64.1622C31.0681 64.1622 36.5133 58.717 36.5133 52.0001Z"
              fill="#FFD4BC" />
          </g>
          <g id="Eyes">
            <path id="Ellipse 1"
              d="M34.8919 56.0542C35.3397 56.0542 35.7027 55.6912 35.7027 55.2434C35.7027 54.7956 35.3397 54.4326 34.8919 54.4326C34.4441 54.4326 34.0811 54.7956 34.0811 55.2434C34.0811 55.6912 34.4441 56.0542 34.8919 56.0542Z"
              fill="#585858" />
            <path id="Ellipse 2"
              d="M34.8919 49.5677C35.3397 49.5677 35.7027 49.2047 35.7027 48.7569C35.7027 48.3091 35.3397 47.946 34.8919 47.946C34.4441 47.946 34.0811 48.3091 34.0811 48.7569C34.0811 49.2047 34.4441 49.5677 34.8919 49.5677Z"
              fill="#585858" />
          </g>
        </g>
      </g>
    </g>
    <defs>
      <filter id="filter0_i_128_33" x="12.189" y="39.8379" width="24.3242" height="24.3242" filterUnits="userSpaceOnUse"
        color-interpolation-filters="sRGB">
        <feFlood flood-opacity="0" result="BackgroundImageFix" />
        <feBlend mode="normal" in="SourceGraphic" in2="BackgroundImageFix" result="shape" />
        <feColorMatrix in="SourceAlpha" type="matrix" values="0 0 0 0 0 0 0 0 0 0 0 0 0 0 0 0 0 0 127 0"
          result="hardAlpha" />
        <feOffset />
        <feGaussianBlur stdDeviation="1.62162" />
        <feComposite in2="hardAlpha" operator="arithmetic" k2="-1" k3="1" />
        <feColorMatrix type="matrix" values="0 0 0 0 0 0 0 0 0 0 0 0 0 0 0 0 0 0 0.25 0" />
        <feBlend mode="normal" in2="shape" result="effect1_innerShadow_128_33" />
      </filter>
      <linearGradient id="paint0_linear_128_33" x1="41.5341" y1="8.17103" x2="24.1707" y2="25.5344"
        gradientUnits="userSpaceOnUse">
        <stop stop-color="#FFD2A9" />
        <stop offset="1" stop-color="#FFBA7A" />
      </linearGradient>
      <linearGradient id="paint1_linear_128_33" x1="36.9376" y1="3.57482" x2="28.7666" y2="11.7458"
        gradientUnits="userSpaceOnUse">
        <stop stop-color="#FF5959" />
        <stop offset="1" stop-color="#B00101" />
      </linearGradient>
    </defs>
  </svg>